<svg width="22" height="22" viewBox="0 0 22 22" fill="none" xmlns="http://www.w3.org/2000/svg">
<path d="M4.31836 18.5625H17.6816C19.1032 18.5625 20.2598 17.406 20.2598 15.9844V2.57812C20.2598 1.15655 19.1032 0 17.6816 0H4.31836C2.89678 0 1.74023 1.15655 1.74023 2.57812V19.4219C1.74023 20.8435 2.89678 22 4.31836 22H16.8223H17.6816C19.1032 22 20.2598 20.8435 20.2598 19.4219V19.4197C19.5411 19.9604 18.6482 20.2812 17.6816 20.2812H16.8223H4.31836C3.8445 20.2812 3.45898 19.8957 3.45898 19.4219C3.45898 18.948 3.8445 18.5625 4.31836 18.5625ZM3.45898 2.57812C3.45898 2.10427 3.8445 1.71875 4.31836 1.71875H17.6816C18.1555 1.71875 18.541 2.10427 18.541 2.57812V15.9844C18.541 16.4582 18.1555 16.8438 17.6816 16.8438H4.31836C4.01719 16.8438 3.72788 16.8957 3.45898 16.991V2.57812ZM10.9355 10.6562C12.8547 10.6562 14.416 12.2176 14.416 14.1367H16.1348C16.1348 12.1033 14.9612 10.3391 13.2561 9.48505C13.6835 8.95993 13.9403 8.29073 13.9403 7.5625C13.9403 5.88032 12.5717 4.51172 10.8895 4.51172C9.20734 4.51172 7.83875 5.88032 7.83875 7.5625C7.83875 8.30607 8.10644 8.98807 8.55014 9.51797C6.88011 10.384 5.73633 12.1292 5.73633 14.1367H7.45508C7.45508 12.2176 9.01643 10.6562 10.9355 10.6562ZM10.8895 6.23047C11.624 6.23047 12.2216 6.82804 12.2216 7.5625C12.2216 8.29696 11.624 8.89453 10.8895 8.89453C10.155 8.89453 9.5575 8.29696 9.5575 7.5625C9.5575 6.82804 10.155 6.23047 10.8895 6.23047Z" fill="#6B6B6B"/>
</svg>
