<svg width="22" height="24" viewBox="0 0 22 24" fill="none" xmlns="http://www.w3.org/2000/svg">
<path d="M18.6975 5.7846C18.4055 5.46608 17.9472 5.41911 17.6058 5.67285C16.32 6.629 9.87018 11.437 9.177 12.1932C8.17179 13.2898 8.17179 15.0741 9.177 16.1707C9.67961 16.7189 10.3399 16.9931 11 16.9931C11.6602 16.9931 12.3204 16.7189 12.8231 16.1707C13.5162 15.4145 17.9235 8.37838 18.8 6.9756C19.0325 6.60327 18.9895 6.10321 18.6975 5.7846ZM11.6077 14.8448C11.2726 15.2104 10.7274 15.2104 10.3924 14.8448C10.0573 14.4793 10.0573 13.8847 10.3922 13.5192C10.6615 13.2289 12.4927 11.8041 14.7458 10.0957C13.1797 12.5535 11.8737 14.5511 11.6077 14.8448Z" fill="white"/>
<path d="M3.96305 18.5424L2.90215 19.1069C2.12588 17.5956 1.71875 15.9087 1.71875 14.1819C1.71875 12.9167 1.93261 11.7049 2.32289 10.5874L3.53852 11.2235C3.6584 11.2862 3.78495 11.3159 3.9096 11.3159C4.22984 11.3159 4.53728 11.1197 4.68505 10.7836C4.89027 10.3168 4.7098 9.75679 4.28184 9.53287L3.08163 8.90484C4.57338 6.25077 7.15438 4.40038 10.1407 4.09992V5.50996C10.1407 6.02774 10.5254 6.44746 11 6.44746C11.4747 6.44746 11.8594 6.02774 11.8594 5.50996V4.09921C12.8833 4.20088 13.874 4.48532 14.8144 4.94845C15.2469 5.16149 15.756 4.95154 15.9512 4.47974C16.1465 4.00781 15.9542 3.45257 15.5216 3.23953C14.0965 2.53776 12.5752 2.18188 11 2.18188C8.0618 2.18188 5.29946 3.43007 3.2218 5.69657C1.14421 7.96312 0 10.9766 0 14.1819C0 16.5505 0.644445 18.8541 1.86368 20.8435C2.02791 21.1114 2.29943 21.2601 2.57864 21.2601C2.70557 21.2601 2.83413 21.2294 2.95492 21.1651L4.71664 20.2276C5.14323 20.0006 5.32035 19.4393 5.11225 18.974C4.90415 18.5086 4.38964 18.3155 3.96305 18.5424Z" fill="white"/>
<path d="M21.0304 9.24932C20.8352 8.77743 20.3263 8.56743 19.8936 8.78057C19.461 8.99362 19.2686 9.54885 19.4639 10.0207C20.0063 11.3313 20.2812 12.7313 20.2812 14.1819C20.2812 15.9113 19.8728 17.6009 19.0942 19.114L17.9866 18.5386C17.5582 18.316 17.0453 18.5144 16.8412 18.982C16.6372 19.4494 16.8192 20.0089 17.2477 20.2315L19.0524 21.169C19.1711 21.2306 19.297 21.2601 19.4214 21.2601C19.7007 21.2601 19.9723 21.1113 20.1363 20.8436C21.3555 18.8541 22 16.5505 22 14.1819C22 12.4635 21.6738 10.8039 21.0304 9.24932Z" fill="white"/>
</svg>
