<svg width="22" height="22" viewBox="0 0 22 22" fill="none" xmlns="http://www.w3.org/2000/svg">
<g clip-path="url(#clip0_85_689)">
<path d="M6.961 10.1836H4.3399C3.86527 10.1836 3.48053 10.5683 3.48053 11.043C3.48053 11.5176 3.86527 11.9023 4.3399 11.9023H6.961C7.43563 11.9023 7.82037 11.5176 7.82037 11.043C7.82037 10.5683 7.43563 10.1836 6.961 10.1836Z" fill="#6B6B6B"/>
<path d="M6.961 13.5352H4.3399C3.86527 13.5352 3.48053 13.9199 3.48053 14.3945C3.48053 14.8692 3.86527 15.2539 4.3399 15.2539H6.961C7.43563 15.2539 7.82037 14.8692 7.82037 14.3945C7.82037 13.9199 7.43563 13.5352 6.961 13.5352Z" fill="#6B6B6B"/>
<path d="M6.961 16.8438H4.3399C3.86527 16.8438 3.48053 17.2285 3.48053 17.7031C3.48053 18.1778 3.86527 18.5625 4.3399 18.5625H6.961C7.43563 18.5625 7.82037 18.1778 7.82037 17.7031C7.82037 17.2285 7.43563 16.8438 6.961 16.8438Z" fill="#6B6B6B"/>
<path d="M12.5469 16.8438H9.92584C9.45121 16.8438 9.06647 17.2285 9.06647 17.7031C9.06647 18.1778 9.45121 18.5625 9.92584 18.5625H12.5469C13.0216 18.5625 13.4063 18.1778 13.4063 17.7031C13.4063 17.2285 13.0216 16.8438 12.5469 16.8438Z" fill="#6B6B6B"/>
<path d="M12.5469 3.4375H4.3399C3.86527 3.4375 3.48053 3.82224 3.48053 4.29688V7.69141C3.48053 8.16605 3.86527 8.55079 4.3399 8.55079H12.5469C13.0215 8.55079 13.4063 8.16605 13.4063 7.69141V4.29688C13.4063 3.82224 13.0215 3.4375 12.5469 3.4375ZM11.6875 6.83204H5.19928V5.15625H11.6875V6.83204Z" fill="#6B6B6B"/>
<path d="M21.1406 15.1259C21.6153 15.1259 22 14.7411 22 14.2665V12.1181C22 11.6434 21.6153 11.2587 21.1406 11.2587H16.8438V0.860352C16.8438 0.385719 16.4591 0.000976562 15.9844 0.000976562H0.859504C0.384914 0.000976562 0.000128906 0.385719 0.000128906 0.860352L0 18.5632C0 20.4586 1.54202 22.0007 3.4375 22.0008L18.5624 22.0009C18.569 22.0009 18.5756 22.0008 18.5821 22.0007C19.4929 21.9956 20.3485 21.6386 20.9931 20.994C21.6424 20.3447 22 19.4815 22 18.5632C22 18.0886 21.6153 17.7038 21.1406 17.7038C20.666 17.7038 20.2812 18.0886 20.2812 18.5632C20.2812 19.0224 20.1025 19.454 19.7778 19.7786C19.4531 20.1032 19.0216 20.282 18.5625 20.282C18.5625 20.282 18.5624 20.282 18.5624 20.282C17.6147 20.2819 16.8438 19.5108 16.8438 18.5632V12.9775H20.2812V14.2666C20.2812 14.7412 20.666 15.1259 21.1406 15.1259ZM3.4375 20.282C2.48978 20.282 1.71875 19.5109 1.71875 18.5632L1.71888 1.71973H15.125V18.5632C15.125 19.1889 15.2931 19.7762 15.5865 20.2821L3.4375 20.282Z" fill="#6B6B6B"/>
<path d="M12.5469 10.1836H9.92584C9.45121 10.1836 9.06647 10.5683 9.06647 11.043C9.06647 11.5176 9.45121 11.9023 9.92584 11.9023H12.5469C13.0216 11.9023 13.4063 11.5176 13.4063 11.043C13.4063 10.5683 13.0216 10.1836 12.5469 10.1836Z" fill="#6B6B6B"/>
<path d="M12.5469 13.5352H9.92584C9.45121 13.5352 9.06647 13.9199 9.06647 14.3945C9.06647 14.8692 9.45121 15.2539 9.92584 15.2539H12.5469C13.0216 15.2539 13.4063 14.8692 13.4063 14.3945C13.4063 13.9199 13.0216 13.5352 12.5469 13.5352Z" fill="#6B6B6B"/>
</g>
<defs>
<clipPath id="clip0_85_689">
<rect width="22" height="22" fill="white"/>
</clipPath>
</defs>
</svg>
