<svg width="231" height="36" viewBox="0 0 231 36" fill="none" xmlns="http://www.w3.org/2000/svg">
<path d="M49.836 25.6897C49.716 25.6897 49.614 25.6477 49.53 25.5637C49.446 25.4797 49.404 25.3777 49.404 25.2577V13.5397C49.404 13.4077 49.44 13.2997 49.512 13.2157C49.596 13.1317 49.704 13.0897 49.836 13.0897H51.222C51.366 13.0897 51.474 13.1197 51.546 13.1797C51.618 13.2277 51.684 13.2937 51.744 13.3777L56.928 21.4417V13.5397C56.928 13.4077 56.964 13.2997 57.036 13.2157C57.12 13.1317 57.228 13.0897 57.36 13.0897H58.872C59.004 13.0897 59.112 13.1317 59.196 13.2157C59.28 13.2997 59.322 13.4077 59.322 13.5397V25.2397C59.322 25.3717 59.28 25.4797 59.196 25.5637C59.112 25.6477 59.01 25.6897 58.89 25.6897H57.486C57.282 25.6897 57.108 25.5937 56.964 25.4017L51.798 17.5177V25.2577C51.798 25.3897 51.756 25.4977 51.672 25.5817C51.588 25.6537 51.48 25.6897 51.348 25.6897H49.836ZM62.5626 25.6897C62.4426 25.6897 62.3406 25.6477 62.2566 25.5637C62.1726 25.4797 62.1306 25.3777 62.1306 25.2577V13.5397C62.1306 13.4077 62.1666 13.2997 62.2386 13.2157C62.3226 13.1317 62.4306 13.0897 62.5626 13.0897H70.3746C70.5066 13.0897 70.6146 13.1317 70.6986 13.2157C70.7826 13.2997 70.8246 13.4077 70.8246 13.5397V14.7997C70.8246 14.9317 70.7826 15.0397 70.6986 15.1237C70.6146 15.1957 70.5066 15.2317 70.3746 15.2317H64.5966V18.6517H70.0146C70.1466 18.6517 70.2546 18.6937 70.3386 18.7777C70.4226 18.8617 70.4646 18.9697 70.4646 19.1017V20.3617C70.4646 20.4937 70.4226 20.6017 70.3386 20.6857C70.2546 20.7577 70.1466 20.7937 70.0146 20.7937H64.5966V25.2577C64.5966 25.3897 64.5546 25.4977 64.4706 25.5817C64.3866 25.6537 64.2786 25.6897 64.1466 25.6897H62.5626ZM77.7132 25.8697C76.0572 25.8697 74.7732 25.4437 73.8612 24.5917C72.9612 23.7397 72.4812 22.5397 72.4212 20.9917C72.4092 20.6677 72.4032 20.1397 72.4032 19.4077C72.4032 18.6637 72.4092 18.1237 72.4212 17.7877C72.4812 16.2517 72.9672 15.0577 73.8792 14.2057C74.8032 13.3417 76.0812 12.9097 77.7132 12.9097C78.7812 12.9097 79.7112 13.0957 80.5032 13.4677C81.2952 13.8277 81.9072 14.3257 82.3392 14.9617C82.7712 15.5857 82.9992 16.2937 83.0232 17.0857V17.1217C83.0232 17.2177 82.9812 17.3017 82.8972 17.3737C82.8252 17.4337 82.7412 17.4637 82.6452 17.4637H80.9352C80.7912 17.4637 80.6832 17.4337 80.6112 17.3737C80.5392 17.3137 80.4792 17.1997 80.4312 17.0317C80.2392 16.2757 79.9212 15.7477 79.4772 15.4477C79.0332 15.1357 78.4392 14.9797 77.6952 14.9797C75.9672 14.9797 75.0672 15.9457 74.9952 17.8777C74.9832 18.2017 74.9772 18.6997 74.9772 19.3717C74.9772 20.0437 74.9832 20.5537 74.9952 20.9017C75.0672 22.8337 75.9672 23.7997 77.6952 23.7997C78.4392 23.7997 79.0332 23.6437 79.4772 23.3317C79.9332 23.0197 80.2512 22.4917 80.4312 21.7477C80.4672 21.5797 80.5212 21.4657 80.5932 21.4057C80.6772 21.3457 80.7912 21.3157 80.9352 21.3157H82.6452C82.7532 21.3157 82.8432 21.3517 82.9152 21.4237C82.9992 21.4957 83.0352 21.5857 83.0232 21.6937C82.9992 22.4857 82.7712 23.1997 82.3392 23.8357C81.9072 24.4597 81.2952 24.9577 80.5032 25.3297C79.7112 25.6897 78.7812 25.8697 77.7132 25.8697ZM89.7032 25.6897C89.5832 25.6897 89.4812 25.6477 89.3972 25.5637C89.3132 25.4797 89.2712 25.3777 89.2712 25.2577V13.5397C89.2712 13.4077 89.3072 13.2997 89.3792 13.2157C89.4632 13.1317 89.5712 13.0897 89.7032 13.0897H94.9232C96.3272 13.0897 97.3712 13.4017 98.0552 14.0257C98.7512 14.6377 99.0992 15.4777 99.0992 16.5457C99.0992 17.1697 98.9432 17.7037 98.6312 18.1477C98.3312 18.5797 97.9772 18.8917 97.5692 19.0837C98.0732 19.3117 98.4932 19.6837 98.8292 20.1997C99.1772 20.7157 99.3512 21.3037 99.3512 21.9637C99.3512 23.0797 98.9732 23.9797 98.2172 24.6637C97.4732 25.3477 96.4232 25.6897 95.0672 25.6897H89.7032ZM94.5992 18.2557C95.2232 18.2557 95.6972 18.1057 96.0212 17.8057C96.3452 17.5057 96.5072 17.1037 96.5072 16.5997C96.5072 16.0837 96.3452 15.6877 96.0212 15.4117C95.6972 15.1237 95.2232 14.9797 94.5992 14.9797H91.7732V18.2557H94.5992ZM94.7792 23.7817C95.4032 23.7817 95.8892 23.6137 96.2372 23.2777C96.5852 22.9297 96.7592 22.4917 96.7592 21.9637C96.7592 21.4237 96.5852 20.9857 96.2372 20.6497C95.8892 20.3017 95.4032 20.1277 94.7792 20.1277H91.7732V23.7817H94.7792ZM106.633 25.8697C105.013 25.8697 103.753 25.4557 102.853 24.6277C101.953 23.7997 101.503 22.5457 101.503 20.8657V13.5397C101.503 13.4077 101.539 13.2997 101.611 13.2157C101.695 13.1317 101.803 13.0897 101.935 13.0897H103.573C103.705 13.0897 103.807 13.1317 103.879 13.2157C103.963 13.2997 104.005 13.4077 104.005 13.5397V20.8657C104.005 21.8257 104.233 22.5517 104.689 23.0437C105.145 23.5237 105.793 23.7637 106.633 23.7637C107.473 23.7637 108.115 23.5237 108.559 23.0437C109.015 22.5517 109.243 21.8257 109.243 20.8657V13.5397C109.243 13.4077 109.285 13.2997 109.369 13.2157C109.453 13.1317 109.561 13.0897 109.693 13.0897H111.313C111.445 13.0897 111.547 13.1317 111.619 13.2157C111.703 13.2997 111.745 13.4077 111.745 13.5397V20.8657C111.745 22.5457 111.295 23.7997 110.395 24.6277C109.507 25.4557 108.253 25.8697 106.633 25.8697ZM118.817 25.8697C117.749 25.8697 116.831 25.7077 116.063 25.3837C115.295 25.0597 114.713 24.6337 114.317 24.1057C113.921 23.5777 113.711 23.0077 113.687 22.3957C113.687 22.2877 113.723 22.1977 113.795 22.1257C113.867 22.0537 113.957 22.0177 114.065 22.0177H115.667C115.811 22.0177 115.919 22.0477 115.991 22.1077C116.075 22.1557 116.153 22.2397 116.225 22.3597C116.345 22.7677 116.621 23.1097 117.053 23.3857C117.485 23.6617 118.073 23.7997 118.817 23.7997C119.669 23.7997 120.311 23.6617 120.743 23.3857C121.175 23.0977 121.391 22.7017 121.391 22.1977C121.391 21.8617 121.277 21.5857 121.049 21.3697C120.833 21.1537 120.503 20.9677 120.059 20.8117C119.627 20.6557 118.979 20.4637 118.115 20.2357C116.699 19.8997 115.661 19.4557 115.001 18.9037C114.353 18.3397 114.029 17.5417 114.029 16.5097C114.029 15.8137 114.215 15.1957 114.587 14.6557C114.971 14.1157 115.517 13.6897 116.225 13.3777C116.945 13.0657 117.779 12.9097 118.727 12.9097C119.711 12.9097 120.563 13.0837 121.283 13.4317C122.003 13.7797 122.549 14.2177 122.921 14.7457C123.305 15.2617 123.509 15.7777 123.533 16.2937C123.533 16.4017 123.497 16.4917 123.425 16.5637C123.353 16.6357 123.263 16.6717 123.155 16.6717H121.481C121.229 16.6717 121.055 16.5577 120.959 16.3297C120.887 15.9457 120.647 15.6277 120.239 15.3757C119.831 15.1117 119.327 14.9797 118.727 14.9797C118.055 14.9797 117.527 15.1057 117.143 15.3577C116.759 15.6097 116.567 15.9757 116.567 16.4557C116.567 16.7917 116.663 17.0677 116.855 17.2837C117.047 17.4997 117.347 17.6917 117.755 17.8597C118.175 18.0277 118.775 18.2137 119.555 18.4177C120.611 18.6577 121.451 18.9277 122.075 19.2277C122.711 19.5277 123.179 19.9057 123.479 20.3617C123.779 20.8177 123.929 21.3997 123.929 22.1077C123.929 22.8757 123.713 23.5477 123.281 24.1237C122.861 24.6877 122.261 25.1197 121.481 25.4197C120.713 25.7197 119.825 25.8697 118.817 25.8697ZM126.424 25.6897C126.304 25.6897 126.202 25.6477 126.118 25.5637C126.034 25.4797 125.992 25.3777 125.992 25.2577V13.5217C125.992 13.3897 126.034 13.2877 126.118 13.2157C126.202 13.1317 126.304 13.0897 126.424 13.0897H128.116C128.248 13.0897 128.35 13.1317 128.422 13.2157C128.506 13.2877 128.548 13.3897 128.548 13.5217V25.2577C128.548 25.3777 128.506 25.4797 128.422 25.5637C128.35 25.6477 128.248 25.6897 128.116 25.6897H126.424ZM131.803 25.6897C131.683 25.6897 131.581 25.6477 131.497 25.5637C131.413 25.4797 131.371 25.3777 131.371 25.2577V13.5397C131.371 13.4077 131.407 13.2997 131.479 13.2157C131.563 13.1317 131.671 13.0897 131.803 13.0897H133.189C133.333 13.0897 133.441 13.1197 133.513 13.1797C133.585 13.2277 133.651 13.2937 133.711 13.3777L138.895 21.4417V13.5397C138.895 13.4077 138.931 13.2997 139.003 13.2157C139.087 13.1317 139.195 13.0897 139.327 13.0897H140.839C140.971 13.0897 141.079 13.1317 141.163 13.2157C141.247 13.2997 141.289 13.4077 141.289 13.5397V25.2397C141.289 25.3717 141.247 25.4797 141.163 25.5637C141.079 25.6477 140.977 25.6897 140.857 25.6897H139.453C139.249 25.6897 139.075 25.5937 138.931 25.4017L133.765 17.5177V25.2577C133.765 25.3897 133.723 25.4977 133.639 25.5817C133.555 25.6537 133.447 25.6897 133.315 25.6897H131.803ZM144.529 25.6897C144.409 25.6897 144.307 25.6477 144.223 25.5637C144.139 25.4797 144.097 25.3777 144.097 25.2577V13.5397C144.097 13.4077 144.133 13.2997 144.205 13.2157C144.289 13.1317 144.397 13.0897 144.529 13.0897H152.449C152.581 13.0897 152.689 13.1317 152.773 13.2157C152.857 13.2997 152.899 13.4077 152.899 13.5397V14.7277C152.899 14.8597 152.857 14.9677 152.773 15.0517C152.689 15.1237 152.581 15.1597 152.449 15.1597H146.527V18.3457H152.053C152.185 18.3457 152.293 18.3877 152.377 18.4717C152.461 18.5437 152.503 18.6457 152.503 18.7777V19.8937C152.503 20.0257 152.461 20.1337 152.377 20.2177C152.293 20.2897 152.185 20.3257 152.053 20.3257H146.527V23.6197H152.593C152.725 23.6197 152.833 23.6617 152.917 23.7457C153.001 23.8297 153.043 23.9377 153.043 24.0697V25.2577C153.043 25.3897 153.001 25.4977 152.917 25.5817C152.833 25.6537 152.725 25.6897 152.593 25.6897H144.529ZM159.669 25.8697C158.601 25.8697 157.683 25.7077 156.915 25.3837C156.147 25.0597 155.565 24.6337 155.169 24.1057C154.773 23.5777 154.563 23.0077 154.539 22.3957C154.539 22.2877 154.575 22.1977 154.647 22.1257C154.719 22.0537 154.809 22.0177 154.917 22.0177H156.519C156.663 22.0177 156.771 22.0477 156.843 22.1077C156.927 22.1557 157.005 22.2397 157.077 22.3597C157.197 22.7677 157.473 23.1097 157.905 23.3857C158.337 23.6617 158.925 23.7997 159.669 23.7997C160.521 23.7997 161.163 23.6617 161.595 23.3857C162.027 23.0977 162.243 22.7017 162.243 22.1977C162.243 21.8617 162.129 21.5857 161.901 21.3697C161.685 21.1537 161.355 20.9677 160.911 20.8117C160.479 20.6557 159.831 20.4637 158.967 20.2357C157.551 19.8997 156.513 19.4557 155.853 18.9037C155.205 18.3397 154.881 17.5417 154.881 16.5097C154.881 15.8137 155.067 15.1957 155.439 14.6557C155.823 14.1157 156.369 13.6897 157.077 13.3777C157.797 13.0657 158.631 12.9097 159.579 12.9097C160.563 12.9097 161.415 13.0837 162.135 13.4317C162.855 13.7797 163.401 14.2177 163.773 14.7457C164.157 15.2617 164.361 15.7777 164.385 16.2937C164.385 16.4017 164.349 16.4917 164.277 16.5637C164.205 16.6357 164.115 16.6717 164.007 16.6717H162.333C162.081 16.6717 161.907 16.5577 161.811 16.3297C161.739 15.9457 161.499 15.6277 161.091 15.3757C160.683 15.1117 160.179 14.9797 159.579 14.9797C158.907 14.9797 158.379 15.1057 157.995 15.3577C157.611 15.6097 157.419 15.9757 157.419 16.4557C157.419 16.7917 157.515 17.0677 157.707 17.2837C157.899 17.4997 158.199 17.6917 158.607 17.8597C159.027 18.0277 159.627 18.2137 160.407 18.4177C161.463 18.6577 162.303 18.9277 162.927 19.2277C163.563 19.5277 164.031 19.9057 164.331 20.3617C164.631 20.8177 164.781 21.3997 164.781 22.1077C164.781 22.8757 164.565 23.5477 164.133 24.1237C163.713 24.6877 163.113 25.1197 162.333 25.4197C161.565 25.7197 160.677 25.8697 159.669 25.8697ZM171.217 25.8697C170.149 25.8697 169.231 25.7077 168.463 25.3837C167.695 25.0597 167.113 24.6337 166.717 24.1057C166.321 23.5777 166.111 23.0077 166.087 22.3957C166.087 22.2877 166.123 22.1977 166.195 22.1257C166.267 22.0537 166.357 22.0177 166.465 22.0177H168.067C168.211 22.0177 168.319 22.0477 168.391 22.1077C168.475 22.1557 168.553 22.2397 168.625 22.3597C168.745 22.7677 169.021 23.1097 169.453 23.3857C169.885 23.6617 170.473 23.7997 171.217 23.7997C172.069 23.7997 172.711 23.6617 173.143 23.3857C173.575 23.0977 173.791 22.7017 173.791 22.1977C173.791 21.8617 173.677 21.5857 173.449 21.3697C173.233 21.1537 172.903 20.9677 172.459 20.8117C172.027 20.6557 171.379 20.4637 170.515 20.2357C169.099 19.8997 168.061 19.4557 167.401 18.9037C166.753 18.3397 166.429 17.5417 166.429 16.5097C166.429 15.8137 166.615 15.1957 166.987 14.6557C167.371 14.1157 167.917 13.6897 168.625 13.3777C169.345 13.0657 170.179 12.9097 171.127 12.9097C172.111 12.9097 172.963 13.0837 173.683 13.4317C174.403 13.7797 174.949 14.2177 175.321 14.7457C175.705 15.2617 175.909 15.7777 175.933 16.2937C175.933 16.4017 175.897 16.4917 175.825 16.5637C175.753 16.6357 175.663 16.6717 175.555 16.6717H173.881C173.629 16.6717 173.455 16.5577 173.359 16.3297C173.287 15.9457 173.047 15.6277 172.639 15.3757C172.231 15.1117 171.727 14.9797 171.127 14.9797C170.455 14.9797 169.927 15.1057 169.543 15.3577C169.159 15.6097 168.967 15.9757 168.967 16.4557C168.967 16.7917 169.063 17.0677 169.255 17.2837C169.447 17.4997 169.747 17.6917 170.155 17.8597C170.575 18.0277 171.175 18.2137 171.955 18.4177C173.011 18.6577 173.851 18.9277 174.475 19.2277C175.111 19.5277 175.579 19.9057 175.879 20.3617C176.179 20.8177 176.329 21.3997 176.329 22.1077C176.329 22.8757 176.113 23.5477 175.681 24.1237C175.261 24.6877 174.661 25.1197 173.881 25.4197C173.113 25.7197 172.225 25.8697 171.217 25.8697Z" fill="white"/>
<path d="M187.366 25.8697C185.71 25.8697 184.426 25.4437 183.514 24.5917C182.614 23.7397 182.134 22.5397 182.074 20.9917C182.062 20.6677 182.056 20.1397 182.056 19.4077C182.056 18.6637 182.062 18.1237 182.074 17.7877C182.134 16.2517 182.62 15.0577 183.532 14.2057C184.456 13.3417 185.734 12.9097 187.366 12.9097C188.434 12.9097 189.364 13.0957 190.156 13.4677C190.948 13.8277 191.56 14.3257 191.992 14.9617C192.424 15.5857 192.652 16.2937 192.676 17.0857V17.1217C192.676 17.2177 192.634 17.3017 192.55 17.3737C192.478 17.4337 192.394 17.4637 192.298 17.4637H190.588C190.444 17.4637 190.336 17.4337 190.264 17.3737C190.192 17.3137 190.132 17.1997 190.084 17.0317C189.892 16.2757 189.574 15.7477 189.13 15.4477C188.686 15.1357 188.092 14.9797 187.348 14.9797C185.62 14.9797 184.72 15.9457 184.648 17.8777C184.636 18.2017 184.63 18.6997 184.63 19.3717C184.63 20.0437 184.636 20.5537 184.648 20.9017C184.72 22.8337 185.62 23.7997 187.348 23.7997C188.092 23.7997 188.686 23.6437 189.13 23.3317C189.586 23.0197 189.904 22.4917 190.084 21.7477C190.12 21.5797 190.174 21.4657 190.246 21.4057C190.33 21.3457 190.444 21.3157 190.588 21.3157H192.298C192.406 21.3157 192.496 21.3517 192.568 21.4237C192.652 21.4957 192.688 21.5857 192.676 21.6937C192.652 22.4857 192.424 23.1997 191.992 23.8357C191.56 24.4597 190.948 24.9577 190.156 25.3297C189.364 25.6897 188.434 25.8697 187.366 25.8697ZM193.896 25.6897C193.8 25.6897 193.71 25.6537 193.626 25.5817C193.554 25.5097 193.518 25.4197 193.518 25.3117L193.554 25.1497L197.892 13.5397C197.976 13.2397 198.186 13.0897 198.522 13.0897H200.484C200.796 13.0897 201.006 13.2397 201.114 13.5397L205.452 25.1497C205.464 25.1857 205.47 25.2397 205.47 25.3117C205.47 25.4197 205.434 25.5097 205.362 25.5817C205.29 25.6537 205.206 25.6897 205.11 25.6897H203.544C203.388 25.6897 203.268 25.6537 203.184 25.5817C203.1 25.5097 203.046 25.4317 203.022 25.3477L202.176 23.1517H196.83L195.984 25.3477C195.888 25.5757 195.714 25.6897 195.462 25.6897H193.896ZM201.546 21.0817L199.494 15.5197L197.46 21.0817H201.546ZM207.582 25.6897C207.462 25.6897 207.36 25.6477 207.276 25.5637C207.192 25.4797 207.15 25.3777 207.15 25.2577V13.5397C207.15 13.4077 207.186 13.2997 207.258 13.2157C207.342 13.1317 207.45 13.0897 207.582 13.0897H212.244C213.708 13.0897 214.854 13.4317 215.682 14.1157C216.522 14.7997 216.942 15.7717 216.942 17.0317C216.942 17.9077 216.726 18.6457 216.294 19.2457C215.874 19.8337 215.286 20.2597 214.53 20.5237L217.158 25.1137C217.194 25.1857 217.212 25.2517 217.212 25.3117C217.212 25.4197 217.17 25.5097 217.086 25.5817C217.014 25.6537 216.93 25.6897 216.834 25.6897H215.196C215.004 25.6897 214.854 25.6477 214.746 25.5637C214.65 25.4797 214.56 25.3597 214.476 25.2037L212.154 20.9377H209.652V25.2577C209.652 25.3777 209.61 25.4797 209.526 25.5637C209.454 25.6477 209.352 25.6897 209.22 25.6897H207.582ZM212.19 18.9037C212.91 18.9037 213.45 18.7417 213.81 18.4177C214.182 18.0937 214.368 17.6257 214.368 17.0137C214.368 16.4017 214.182 15.9277 213.81 15.5917C213.45 15.2557 212.91 15.0877 212.19 15.0877H209.652V18.9037H212.19ZM219.693 25.6897C219.573 25.6897 219.471 25.6477 219.387 25.5637C219.303 25.4797 219.261 25.3777 219.261 25.2577V13.5397C219.261 13.4077 219.297 13.2997 219.369 13.2157C219.453 13.1317 219.561 13.0897 219.693 13.0897H224.085C227.613 13.0897 229.413 14.7217 229.485 17.9857C229.509 18.6817 229.521 19.1497 229.521 19.3897C229.521 19.6177 229.509 20.0797 229.485 20.7757C229.437 22.4557 228.987 23.6977 228.135 24.5017C227.283 25.2937 225.963 25.6897 224.175 25.6897H219.693ZM224.085 23.6197C225.093 23.6197 225.819 23.3977 226.263 22.9537C226.707 22.4977 226.941 21.7537 226.965 20.7217C226.989 20.0017 227.001 19.5517 227.001 19.3717C227.001 19.1797 226.989 18.7357 226.965 18.0397C226.941 17.0557 226.689 16.3297 226.209 15.8617C225.741 15.3937 225.003 15.1597 223.995 15.1597H221.763V23.6197H224.085Z" fill="#191A1A"/>
<path d="M10.1071 31.4108L2.3094 17.9048L10.1071 4.3988H25.7025L33.5002 17.9048L25.7025 31.4108H10.1071Z" stroke="#191A1A" stroke-width="4"/>
<path d="M13.5727 25.4079L9.2407 17.9046L13.5727 10.4014H22.2368L26.5688 17.9046L22.2368 25.4079H13.5727Z" stroke="white" stroke-width="2"/>
</svg>
